<?xml version="1.0" encoding="utf-8"?>
<!-- Generator: Adobe Illustrator 27.8.1, SVG Export Plug-In . SVG Version: 6.00 Build 0)  -->
<svg version="1.1" id="Layer_1" xmlns="http://www.w3.org/2000/svg" xmlns:xlink="http://www.w3.org/1999/xlink" x="0px" y="0px"
	 viewBox="0 0 1000 1000" style="enable-background:new 0 0 1000 1000;" xml:space="preserve">
<style type="text/css">
	.st0{fill:#FFFFFF;}
	.st1{fill:#111010;}
	.st2{fill:#111010;stroke:#111010;stroke-width:60;}
	.st3{fill:url(#SVGID_1_);}
</style>
<rect class="st0" width="1000" height="1000"/>
<path class="st1" d="M360.1,800.1c-11.4,0-22.9-1.3-34.3-4c-40.2-9.3-74.1-34.1-95.6-69.8l-0.1-0.2L71.7,465.2
	c-21.1-34.8-27.8-75.9-18.9-115.8c9-40.3,32.9-74.7,67.3-96.7c34.5-22.1,75.4-29.2,115.2-20c39.8,9.3,73.5,33.7,95.1,68.9l0.2,0.3
	c0.1,0.2,0.2,0.4,0.3,0.6l14.5,23.9c2.3-6.1,4.9-12,7.9-17.8c12.4-23.7,30.7-43.7,53.1-58.1c34.5-22.2,75.4-29.3,115.2-20
	c40.1,9.3,74,34.1,95.6,69.6l0.3,0.4l15,24.8c11.3-33.4,31.4-59.2,60.7-78.2l0.3-0.2c34.5-22.1,75.4-29.2,115.2-20
	c40.2,9.3,74.1,34.1,95.7,69.8c21,34.7,27.8,75.9,18.9,115.8c-9,40.3-32.9,74.6-67.3,96.6c-22.9,14.6-49.2,22.8-76.2,23.6
	c-7.3,0.2-14.6-0.1-21.9-0.9l17.7,29.3c21.1,34.8,27.8,75.9,18.9,115.8c-9,40.3-32.9,74.7-67.3,96.7c-34.5,22.1-75.4,29.2-115.2,20
	c-39.9-9.3-73.7-33.8-95.3-69.2l-0.3-0.4l-0.3-0.6l-14-23c-11.5,31-32.7,57.7-61.1,75.8C416.4,791.9,388.5,800.1,360.1,800.1z
	 M281.7,695.6c13.1,21.5,33.5,36.4,57.7,42c23.9,5.6,48.4,1.3,69.2-12.1c27.2-17.3,43.4-47.5,43.4-80.8l0-1.4
	c0.4-13.6,7.4-26,18.7-33.3l0.2-0.1c8.6-5.6,19.3-7.4,29.4-5.2c10.1,2.3,18.8,8.4,24.6,17.3l0.2,0.3l42.7,70.4
	c13.1,21.6,33.6,36.6,57.8,42.2c23.9,5.6,48.4,1.3,69.2-12.1c43.3-27.7,56.4-86.3,29.4-130.9L681,521c-11-18.8-5.1-43.8,13.2-55.6
	l0.1,0c2.2-1.4,4.5-2.7,7-3.7l1.9-0.8l2-0.5c4.5-1.2,8.6-1.7,12.5-1.6l1.7,0.1l1.7,0.3c2.2,0.3,4,0.7,5.7,1.2l0.2,0
	c0.2,0.1,0.3,0.1,0.5,0.1l1.1,0.3l0.8,0.3l1.4,0.5l1.9,1c29.5,15.1,63.5,13.7,91-3.9c43.2-27.6,56.4-86.3,29.4-130.8
	c-13.1-21.7-33.7-36.8-57.9-42.4c-23.9-5.6-48.5-1.3-69.2,12.1l-0.1,0.1c-26.2,17.1-39.6,42.1-43.3,81l-0.1,1.3
	c-0.3,2.3-0.8,4.8-1.4,7.3l-0.3,1.1l-0.3,1c-0.3,1-0.7,2.1-1.2,3.3c-0.8,1.9-1.8,4-2.9,6.3l-0.5,1c-1.8,3.3-3.8,6.2-5.7,8.7
	l-0.1,0.1c-0.2,0.3-0.4,0.5-0.6,0.8l-3.8,4.5l-5.2,2.7c-18.1,9.4-40,3.3-51.1-14.3l-0.5-0.8l-43-71c-13.1-21.3-33.5-36-57.4-41.6
	c-23.9-5.5-48.5-1.3-69.2,12.1c-27.4,17.6-43.6,48-43.4,81.3l0,1.3l-0.1,1.2c-1,13.1-7.9,24.9-18.6,31.7l-0.9,0.6
	c-8.6,5.3-19.3,7-29.2,4.6c-8.8-2.1-16.5-7.2-22.1-14.4l-1.7-1.7l-1.6-3.3l-41.1-67.7l-0.2-0.3l-0.5-0.9
	c-13.1-21.5-33.5-36.4-57.7-42c-23.9-5.6-48.4-1.3-69.2,12.1C109.2,330.9,96,389.5,122.9,434l0.1,0.1l158.4,260.9L281.7,695.6z
	 M622.7,371.4C622.7,371.4,622.7,371.4,622.7,371.4C622.7,371.4,622.7,371.4,622.7,371.4z"/>
<path class="st2" d="M710.5,490.6l0.1-0.1l0.1-0.1c0.8-0.5,1.5-0.9,2.3-1.2c2.2-0.6,3.3-0.6,3.4-0.6c1.4,0.2,2.1,0.4,2.3,0.4
	c0.1,0,0.1,0,0.1,0c0,0,0,0,0,0c36.7,18.8,82.6,19.1,120.8-5.4c57.5-36.7,74-113.7,38.9-171.6c-35.5-58.9-111.5-76.9-169-40l-0.1,0
	l-0.1,0c-38.1,24.7-53,61.5-57,103.4c-0.2,1.2-0.4,2.6-0.8,4.1c0,0.1-0.2,0.5-0.5,1.2c-0.4,1-1.1,2.4-2,4.3c-1.1,2-2.1,3.5-2.8,4.4
	c-0.1,0.1-0.1,0.2-0.2,0.2c-3.7,1.9-9,1.1-12.1-4c0,0,0,0,0,0l-42.6-70.2c0,0,0,0,0,0c-35.5-58.9-111.5-77-169-40
	c-37.4,24-57.5,65.1-57.2,106.7c-0.3,4-2.3,7.1-4.8,8.6l-0.1,0l-0.1,0l-0.4,0.3c-3.7,2.3-9.4,1.6-12.6-3.7c0,0,0,0,0,0l-42.3-69.7
	c0,0,0,0,0,0c-35.5-58.9-111.4-76.9-169-40c-57.5,36.8-74,113.8-38.9,171.7l0,0l158.5,261.1c0,0,0,0,0,0
	c35.5,58.9,111.4,76.9,169,40c37.5-23.9,57.2-64.9,57.2-106c0,0,0-0.1,0-0.1v-0.1c0,0,0,0,0-0.1c0.1-3.9,2-7.4,4.9-9.2l0.1-0.1
	l0.1-0.1c3.7-2.4,9.5-1.8,12.8,3.6c0,0,0,0,0,0l42.1,69.4c0,0,0,0,0,0c35.5,58.9,111.4,77,169,40c57.5-36.7,74-113.8,38.9-171.7
	L707,505.9C704,500.8,705.7,493.8,710.5,490.6z"/>
<g>
	<linearGradient id="SVGID_1_" gradientUnits="userSpaceOnUse" x1="715.9489" y1="696.1855" x2="241.0654" y2="106.481">
		<stop  offset="0" style="stop-color:#67EADD"/>
		<stop  offset="0.6458" style="stop-color:#E1FFFC"/>
	</linearGradient>
	<path class="st3" d="M867.5,319c-31.8-52.8-99.7-68.8-151-35.8l0,0l0,0c-33.8,21.9-47.5,54.6-51.2,94c-0.2,1.8-0.6,3.8-1.2,6
		c-0.3,1-1.2,3.6-3.5,8.2c-1.4,2.6-2.9,4.8-4.2,6.4c-0.7,0.8-1.2,1.4-1.7,1.9c-0.2,0.2-0.4,0.4-0.5,0.5c0,0-0.1,0.1-0.1,0.1
		c0,0-0.1,0.1-0.1,0.1l0,0l0,0c-10,6.5-23.9,3.6-30.7-7.6c0,0,0,0,0,0l-42.6-70.2c0,0,0,0,0,0c-31.8-52.8-99.7-68.8-151-35.8
		c-33.6,21.5-51.7,58.6-51.3,96.2c-0.4,7.9-4.4,15.1-10.7,19.1l0,0l-0.5,0.3c-9.9,6.2-23.6,3.3-30.4-7.9c0,0,0,0,0,0l-42.3-69.7
		c0,0,0,0,0,0c-31.8-52.8-99.7-68.8-151-35.8c-51.4,32.9-66.4,102-34.8,154.1L266.9,704c0,0,0,0,0,0c31.8,52.8,99.7,68.8,151,35.8
		c33.5-21.4,51.2-58.1,51.3-95.2c0,0,0,0,0,0l0-0.2c0,0,0,0,0,0c0.1-8,4.1-15.6,10.8-19.9l0.1,0l0.1,0c10-6.5,23.9-3.6,30.8,7.6
		c0,0,0,0,0,0l42.1,69.4c0,0,0,0,0,0c31.8,52.8,99.7,68.8,151,35.8c51.4-32.9,66.4-102,34.8-154.1l-42.9-70.7c0,0,0,0,0-0.1
		c-6.5-11-3-25.7,7.6-32.6l0.1,0l0.1,0c1.7-1.1,3.4-2,5.2-2.7c4.5-1.3,7.6-1.4,9.5-1.1c1.8,0.3,3,0.6,3.8,0.8
		c0.7,0.2,1.3,0.4,1.9,0.7c0,0,0,0,0,0l0.2,0.1l0,0l0,0c33,17.1,74.2,17.4,108.4-4.6C884.1,440.2,899.1,371,867.5,319z M814.2,444.1
		L814.2,444.1c-20.4,13.1-44.6,14.6-65.8,6.7l0,0l0,0c-3-1.1-5.9-2.4-8.7-3.9l-0.5-0.2l-1-0.5l-0.6-0.3l0,0
		c-4.1-1.8-8.2-2.9-14.1-3.9c-8.2-1.3-16.6-0.2-24.8,2.2l0,0l-0.8,0.2l-0.4,0.2c-4.3,1.6-8.6,3.7-12.6,6.4
		c-26.2,17-34.4,52.2-18.4,79l0,0.1l43,70.9l0,0c22.2,36.6,11.3,84.9-24,107.4l0,0c-34.9,22.4-81.1,11.8-103.1-24.7l0,0l0,0
		l-42.1-69.5l0,0l0,0c-16.5-27.2-51.9-36.1-78.8-18.6c-16.9,10.9-26.3,29.6-26.5,48.4l0,0l0,0.5v0c0,26.4-12.6,51.8-35.4,66.3l0,0
		l0,0c-34.9,22.4-81.1,11.8-103.1-24.7l0,0l-158.5-261c-22.2-36.6-11.3-84.9,24-107.4l0,0l0,0c34.9-22.4,81.1-11.8,103.1,24.7l0,0
		l42.4,69.8l0,0c16.4,26.9,51.3,35.9,78.1,19l0.1,0l0.5-0.4c0,0,0,0,0,0c16.9-10.8,25.9-29,26.6-47.1l0-0.5l0-0.5
		c-0.4-26.8,12.4-52.5,35.4-67.3l0,0l0,0c34.9-22.4,81.1-11.8,103.1,24.7l0,0l42.6,70.3l0,0c16.5,27.2,52,36.1,78.8,18.5
		c7.9-5.1,14-13.8,18.2-21.6l0.1-0.2l0.1-0.2c2.7-5.4,5.1-10.7,6.3-15.6c0.9-3.5,1.5-6.9,2-10.3l0-0.3l0-0.3
		c3.1-33,13.5-54.3,35.7-68.7c34.8-22.4,81.1-11.7,103,24.7l0,0c1.8,3,3.4,6.2,4.8,9.4l0,0l0,0C858.4,381.2,846.5,423.5,814.2,444.1
		z"/>
</g>
</svg>
